<?xml version="1.0" standalone="no"?><!DOCTYPE svg PUBLIC "-//W3C//DTD SVG 1.1//EN" "http://www.w3.org/Graphics/SVG/1.1/DTD/svg11.dtd"><svg class="icon" width="200px" height="200.00px" viewBox="0 0 1024 1024" version="1.1" xmlns="http://www.w3.org/2000/svg"><path fill="#9A9A9A" d="M853.216 358.176c0-188.416-152.736-341.184-341.216-341.184s-341.184 152.768-341.184 341.184c0 110.976 53.152 209.344 135.2 271.584l-0.16 0.096c1.568 1.056 3.168 2.272 4.864 3.584 0.16 0.128 0.32 0.256 0.48 0.352 26.4 20.832 64.352 69.536 64.352 133.792l0 239.424 272.96 0 0-239.424c0-68.256 39.424-117.216 68.256-136.672l-0.096-0.096c82.848-62.208 136.576-161.056 136.576-272.64zM409.632 972.896l0-102.944 204.736 0 0 102.944-204.736 0zM512 392.288c-18.816 0-34.112-15.296-34.112-34.112s15.328-34.144 34.112-34.144 34.112 15.328 34.112 34.144c0 18.816-15.328 34.112-34.112 34.112zM696.16 603.552c-0.448 0.352-0.896 0.704-1.344 1.056-37.76 26.848-80.448 84.672-80.448 162.976l0 68.256-85.312 0 0-411.84c29.376-7.616 51.168-34.08 51.168-65.792 0-37.696-30.56-68.256-68.256-68.256s-68.256 30.56-68.256 68.256c0 31.744 21.792 58.208 51.168 65.792l0 411.84-85.312 0 0-68.256c0-73.472-41.664-132.416-77.024-160.32-0.256-0.224-0.608-0.48-0.928-0.736-1.12-0.864-2.208-1.696-3.264-2.496-0.576-0.512-1.152-0.992-1.792-1.44-77.344-58.688-121.728-147.776-121.728-244.416 0-169.312 137.76-307.072 307.072-307.072s307.072 137.76 307.072 307.072c0 97.28-44.8 186.688-122.944 245.344z" /></svg>