<?xml version="1.0" encoding="utf-8"?>
<!-- Generator: Adobe Illustrator 21.1.0, SVG Export Plug-In . SVG Version: 6.00 Build 0)  -->
<svg version="1.1" id="图层_1" xmlns="http://www.w3.org/2000/svg" xmlns:xlink="http://www.w3.org/1999/xlink" x="0px" y="0px"
	 viewBox="0 0 150 30" style="enable-background:new 0 0 150 30;" xml:space="preserve">
<style type="text/css">
	.st0{fill:#008B7D;stroke:#4D4D4D;stroke-miterlimit:1;}
</style>
<g>
	<path class="st0" d="M27.8,8.7c-0.2,0.3-0.4,0.4-0.6,0.5c-2.8-1.6-5.3-2.3-7.5-2.3c-2.9,0.1-4.4,0.9-4.5,2.6c0,0.8,0.7,1.6,2,2.2
		c0.6,0.3,2.2,1,5,2c2.4,1,3.6,2.3,3.6,4.1c-0.1,2.7-2.1,4-6,4.1c-2.5,0-4.7-1-6.4-3c0.1-0.2,0.2-0.4,0.4-0.6
		c0.1-0.1,0.4-0.2,0.7-0.4c1.5,1.6,3.3,2.3,5.3,2.3c2.5,0,3.8-0.8,3.9-2.4c0-1.2-1-2.2-3.1-2.9c-2.4-0.8-4-1.4-4.8-1.9
		c-1.8-0.9-2.6-2.1-2.6-3.5c0.2-2.8,2.4-4.1,6.5-4.2c1.2,0,2.6,0.3,4.3,0.8C25.6,6.5,27,7.2,28.1,8C28.1,8.2,28,8.4,27.8,8.7z"/>
	<path class="st0" d="M40.1,21.6c-0.1-0.5-0.2-1-0.4-1.7c-1.3,1.3-2.8,1.9-4.6,2c-2,0-3.4-0.5-4.2-1.5c-0.7-0.8-1.1-1.9-1.1-3.4
		c0-1.4,0.4-3.2,1.2-5.5c0.6,0,1.2,0.2,1.6,0.4c-0.6,2.2-0.9,3.8-0.9,4.9s0.2,1.9,0.7,2.4c0.6,0.7,1.5,1,2.8,1
		c1.5,0,2.9-0.6,4.2-1.9c-0.5-3.4-0.7-5.6-0.8-6.6c0.3-0.2,0.9-0.3,1.6-0.3c0.3,0.7,0.6,2.5,1,5.4c0.3,2.6,0.5,4.1,0.6,4.5
		C41.1,21.5,40.6,21.6,40.1,21.6z"/>
	<path class="st0" d="M49.2,26.1c-0.1,0.2-0.9,0.3-2.4,0.3c-1.9,0-3.1-0.1-3.7-0.4c0-0.2,0-0.5,0-0.7c0-0.3,0-0.6,0.1-0.7
		c0.2,0,0.9,0,2,0c0.9,0,1.5,0,1.7,0c0.2,0,0.3-0.4,0.3-1.2c0-0.7-0.1-2.4-0.1-5.2C47,15.3,47,13,47,11.5c0.1,0,0.4-0.1,0.9-0.1
		c0.2,0,0.5,0,1,0.1c0.1,0.4,0.2,2.3,0.4,5.7c0.1,2.7,0.1,4.8,0.1,6.4C49.4,25.1,49.3,25.9,49.2,26.1z M48.9,7.7
		c-0.3,0-0.7-0.1-1.4-0.3c-0.7-0.2-1.1-0.4-1.2-0.6c0.1-0.5,0.3-1.1,0.7-1.6c0.2,0,0.7,0.1,1.3,0.3c0.6,0.2,1,0.4,1.2,0.6
		C49.4,6.4,49.2,7,48.9,7.7z"/>
	<path class="st0" d="M60,12.8c-0.1,0.2-0.2,0.4-0.4,0.5c-0.7-0.3-1.4-0.5-2.1-0.5c-1.2,0-2.2,0.5-3,1.4c-0.6,0.7-0.9,1.6-0.9,2.5
		c0,0.9,0.3,1.8,1,2.5c0.7,0.7,1.6,1,2.6,1c0.5,0,1-0.1,1.5-0.2c0.3,0.4,0.4,0.8,0.5,1.3c-0.5,0.3-1.2,0.5-2,0.5
		c-1.7,0-3-0.5-4.1-1.5c-1.1-1-1.6-2.3-1.6-3.7S52,14.1,53,13c1.1-1.1,2.6-1.7,4.4-1.7c1.1,0,2,0.2,2.8,0.7
		C60.3,12.3,60.2,12.5,60,12.8z M62.7,19.3c-0.6,0.8-1.4,1.3-2.2,1.6c-0.2-0.3-0.4-0.5-0.4-0.6c-0.1-0.1-0.2-0.3-0.4-0.6
		c0.5-0.3,1-0.7,1.4-1.3c0.4-0.5,0.6-1.1,0.6-1.7c0-1.1-0.4-2-1.2-2.9c0.3-0.5,0.7-0.8,1.2-1c1.3,1,2,2.3,2,4
		C63.5,17.7,63.2,18.5,62.7,19.3z"/>
	<path class="st0" d="M74.8,13.1C74,13,73.4,13,73,13c-1.9,0-3.7,0.6-5.5,1.7c0.3,3.7,0.5,5.8,0.5,6.3c0,0.3,0,0.6,0,0.7
		c-0.2,0.1-0.7,0.1-1.7,0.1c-0.2-0.9-0.5-2.6-0.7-5.1c-0.2-2.1-0.2-3.9-0.2-5.2c0.4,0,0.8-0.1,1-0.1c0.2,0,0.4,0,0.8,0l0.2,1.6
		c1.6-1.1,3.3-1.6,5.1-1.6c0.8,0,1.6,0.1,2.4,0.3C74.9,12.3,74.9,12.8,74.8,13.1z"/>
	<path class="st0" d="M98.8,5.3c0,1.4,0.1,2.9,0.1,4.4c1.9,0.1,3.7,0.2,5.6,0.4c0,1.7-0.1,3.1-0.2,4.4c0.7,0,1.4,0,2.1,0.1
		c0.3,1.3,0.5,3.3,0.5,5.9c-0.2,0.1-0.9,0.1-2,0.1c-0.8,0-1.4,0-1.8,0c-0.1-0.2-0.1-0.4-0.1-0.7c0-0.2,0-0.4,0.1-0.6
		c0.7,0,1.3-0.1,2-0.2c-0.1-1-0.2-2-0.4-2.9c-1.9,0-3.8-0.1-5.7-0.3c0,2.6,0.1,5.3,0.1,8c-0.2,0-0.5,0.1-0.8,0.1c-0.3,0-0.6,0-0.9,0
		c-0.3-2.1-0.4-4.8-0.4-8.1c-2.1-0.1-4.3-0.2-6.5-0.4c-0.1-0.3-0.1-0.6-0.1-0.8c0-0.1,0.1-0.4,0.2-0.7c2.1,0,4.2,0.1,6.4,0.2v-2.8
		c-1.7-0.1-3.4-0.2-5.1-0.3c-0.1-0.2-0.1-0.5-0.1-0.8c0-0.2,0-0.5,0.1-0.8c1.7,0,3.4,0.1,5.1,0.1c0-2,0.1-3.4,0.2-4.3
		c0.2,0,0.5-0.1,0.8-0.1C98.3,5.2,98.5,5.3,98.8,5.3z M102.6,14.4c0-0.9,0.1-1.8,0.1-2.7c-1.3-0.1-2.5-0.1-3.7-0.2
		c0,0.9,0,1.9,0,2.8C100.2,14.2,101.4,14.3,102.6,14.4z M107.7,8.3c-0.2,0.5-0.4,1.1-0.8,1.6c-1.5-0.3-2.7-0.8-3.7-1.4
		c0.2-0.7,0.5-1.3,0.8-1.7C105.2,7.3,106.5,7.8,107.7,8.3z"/>
	<path class="st0" d="M120.1,16.9c4.4,0,8.7,0.1,13.1,0.3c0-0.4,0-0.9,0-1.3c0-1.3-0.1-2.9-0.2-5c-3.7,0.1-7.4,0.2-11,0.4
		c-0.1-0.5-0.2-0.9-0.2-1.4c4-0.4,8.4-0.6,13.1-0.6c0.2,2.6,0.3,4.8,0.3,6.7c0,0.5,0,1,0,1.4c0.7,0,1.4,0.1,2.1,0.1V18
		c0,0.3-0.1,0.6-0.1,0.8c-0.7,0-1.4,0-2,0c-0.1,2.8-0.2,4.4-0.5,5c-0.4,0-0.8,0.1-1.3,0.1c-1,0-1.8-0.1-2.4-0.2
		c-0.1-0.3-0.2-0.7-0.2-1.1c0.8,0,1.5,0,2.2-0.1c0.1-0.4,0.2-1.6,0.2-3.7c-5,0-9.2-0.1-12.9-0.2c0.1,1.6,0.2,3.3,0.4,4.9
		c-0.5,0.1-1.1,0.2-1.8,0.2c-0.2-1.8-0.5-3.5-0.6-5.3c-0.9,0-1.7-0.1-2.5-0.1c-0.1-0.1-0.1-0.4-0.1-0.8c0-0.2,0-0.5,0.1-0.8
		c0.8,0,1.5,0,2.3,0c-0.2-2-0.4-3.9-0.5-5.9c0.6-0.1,1.2-0.1,1.8-0.2C119.7,12.8,119.9,14.8,120.1,16.9z M131,6.1
		c-4.8,0.9-9.6,1.5-14.4,1.7c-0.3-0.4-0.4-0.9-0.4-1.6c4.7-0.7,9.5-1.3,14.6-1.7C131,5,131,5.6,131,6.1z M127.9,21.6
		c-0.2,0.5-0.6,0.9-1,1.3c-1.2-0.5-2.2-1.1-3.1-1.9c0.3-0.5,0.6-0.9,0.9-1.3C125.7,20.2,126.8,20.8,127.9,21.6z M128.8,15.1
		c-0.3,0.5-0.6,1-1.1,1.3c-1.4-0.6-2.6-1.4-3.7-2.2c0.3-0.5,0.6-0.9,0.9-1.3C126.3,13.4,127.6,14.2,128.8,15.1z"/>
</g>
<g>
</g>
<g>
</g>
<g>
</g>
<g>
</g>
<g>
</g>
<g>
</g>
<g>
</g>
<g>
</g>
<g>
</g>
<g>
</g>
<g>
</g>
</svg>
